REM DIRINDEX 1\2,1\3
REM DIRNAME folder01,folder02,folder03
TITLE ""
FILE "0081-0120.mp3" MP3
  TRACK 01 AUDIO
    TITLE "0:"
    INDEX 01 00:00:00
  TRACK 02 AUDIO
    TITLE "2:cjc039_0081"
    INDEX 01 00:00:27
  TRACK 03 AUDIO
    TITLE "0:"
    INDEX 01 00:02:14
  TRACK 04 AUDIO
    TITLE "2:cjc039_0082"
    INDEX 01 00:02:67
  TRACK 05 AUDIO
    TITLE "0:"
    INDEX 01 00:04:17
  TRACK 06 AUDIO
    TITLE "2:cjc039_0083"
    INDEX 01 00:04:62
  TRACK 07 AUDIO
    TITLE "0:"
    INDEX 01 00:06:04
  TRACK 08 AUDIO
    TITLE "2:cjc039_0084"
    INDEX 01 00:06:53
  TRACK 09 AUDIO
    TITLE "0:"
    INDEX 01 00:08:13
  TRACK 10 AUDIO
    TITLE "2:cjc039_0085"
    INDEX 01 00:08:60
  TRACK 11 AUDIO
    TITLE "0:"
    INDEX 01 00:10:35
  TRACK 12 AUDIO
    TITLE "2:cjc039_0086"
    INDEX 01 00:11:13
  TRACK 13 AUDIO
    TITLE "0:"
    INDEX 01 00:12:32
  TRACK 14 AUDIO
    TITLE "2:cjc039_0087"
    INDEX 01 00:13:08
  TRACK 15 AUDIO
    TITLE "0:"
    INDEX 01 00:14:31
  TRACK 16 AUDIO
    TITLE "2:cjc039_0088"
    INDEX 01 00:15:13
  TRACK 17 AUDIO
    TITLE "0:"
    INDEX 01 00:16:44
  TRACK 18 AUDIO
    TITLE "2:cjc039_0089"
    INDEX 01 00:17:12
  TRACK 19 AUDIO
    TITLE "0:"
    INDEX 01 00:18:31
  TRACK 20 AUDIO
    TITLE "2:cjc039_0090"
    INDEX 01 00:18:74
  TRACK 21 AUDIO
    TITLE "0:"
    INDEX 01 00:20:41
  TRACK 22 AUDIO
    TITLE "2:cjc039_0091"
    INDEX 01 00:21:19
  TRACK 23 AUDIO
    TITLE "0:"
    INDEX 01 00:22:40
  TRACK 24 AUDIO
    TITLE "2:cjc039_0092"
    INDEX 01 00:23:14
  TRACK 25 AUDIO
    TITLE "0:"
    INDEX 01 00:24:41
  TRACK 26 AUDIO
    TITLE "2:cjc039_0093"
    INDEX 01 00:25:21
  TRACK 27 AUDIO
    TITLE "0:"
    INDEX 01 00:26:40
  TRACK 28 AUDIO
    TITLE "2:cjc039_0094"
    INDEX 01 00:27:06
  TRACK 29 AUDIO
    TITLE "0:"
    INDEX 01 00:28:23
  TRACK 30 AUDIO
    TITLE "2:cjc039_0095"
    INDEX 01 00:28:72
  TRACK 31 AUDIO
    TITLE "0:"
    INDEX 01 00:30:14
  TRACK 32 AUDIO
    TITLE "2:cjc039_0096"
    INDEX 01 00:30:59
  TRACK 33 AUDIO
    TITLE "0:"
    INDEX 01 00:32:17
  TRACK 34 AUDIO
    TITLE "2:cjc039_0097"
    INDEX 01 00:32:66
  TRACK 35 AUDIO
    TITLE "0:"
    INDEX 01 00:34:08
  TRACK 36 AUDIO
    TITLE "2:cjc039_0098"
    INDEX 01 00:34:55
  TRACK 37 AUDIO
    TITLE "0:"
    INDEX 01 00:36:07
  TRACK 38 AUDIO
    TITLE "2:cjc039_0099"
    INDEX 01 00:36:58
  TRACK 39 AUDIO
    TITLE "0:"
    INDEX 01 00:38:10
  TRACK 40 AUDIO
    TITLE "2:cjc039_0100"
    INDEX 01 00:38:59
  TRACK 41 AUDIO
    TITLE "0:"
    INDEX 01 00:40:26
  TRACK 42 AUDIO
    TITLE "2:cjc039_0101"
    INDEX 01 00:40:72
  TRACK 43 AUDIO
    TITLE "0:"
    INDEX 01 00:42:19
  TRACK 44 AUDIO
    TITLE "2:cjc039_0102"
    INDEX 01 00:42:61
  TRACK 45 AUDIO
    TITLE "0:"
    INDEX 01 00:44:12
  TRACK 46 AUDIO
    TITLE "2:cjc039_0103"
    INDEX 01 00:44:63
  TRACK 47 AUDIO
    TITLE "0:"
    INDEX 01 00:46:11
  TRACK 48 AUDIO
    TITLE "2:cjc039_0104"
    INDEX 01 00:46:62
  TRACK 49 AUDIO
    TITLE "0:"
    INDEX 01 00:48:28
  TRACK 50 AUDIO
    TITLE "2:cjc039_0105"
    INDEX 01 00:48:71
  TRACK 51 AUDIO
    TITLE "0:"
    INDEX 01 00:50:41
  TRACK 52 AUDIO
    TITLE "2:cjc039_0106"
    INDEX 01 00:51:13
  TRACK 53 AUDIO
    TITLE "0:"
    INDEX 01 00:52:28
  TRACK 54 AUDIO
    TITLE "2:cjc039_0107"
    INDEX 01 00:53:04
  TRACK 55 AUDIO
    TITLE "0:"
    INDEX 01 00:54:17
  TRACK 56 AUDIO
    TITLE "2:cjc039_0108"
    INDEX 01 00:54:64
  TRACK 57 AUDIO
    TITLE "0:"
    INDEX 01 00:56:35
  TRACK 58 AUDIO
    TITLE "2:cjc039_0109"
    INDEX 01 00:57:13
  TRACK 59 AUDIO
    TITLE "0:"
    INDEX 01 00:58:58
  TRACK 60 AUDIO
    TITLE "2:cjc039_0110"
    INDEX 01 00:59:28
  TRACK 61 AUDIO
    TITLE "0:"
    INDEX 01 01:00:47
  TRACK 62 AUDIO
    TITLE "2:cjc039_0111"
    INDEX 01 01:01:23
  TRACK 63 AUDIO
    TITLE "0:"
    INDEX 01 01:02:50
  TRACK 64 AUDIO
    TITLE "2:cjc039_0112"
    INDEX 01 01:03:22
  TRACK 65 AUDIO
    TITLE "0:"
    INDEX 01 01:05:07
  TRACK 66 AUDIO
    TITLE "2:cjc039_0113"
    INDEX 01 01:05:60
  TRACK 67 AUDIO
    TITLE "0:"
    INDEX 01 01:07:37
  TRACK 68 AUDIO
    TITLE "2:cjc039_0114"
    INDEX 01 01:08:13
  TRACK 69 AUDIO
    TITLE "0:"
    INDEX 01 01:09:34
  TRACK 70 AUDIO
    TITLE "2:cjc039_0115"
    INDEX 01 01:10:06
  TRACK 71 AUDIO
    TITLE "0:"
    INDEX 01 01:11:49
  TRACK 72 AUDIO
    TITLE "2:cjc039_0116"
    INDEX 01 01:12:23
  TRACK 73 AUDIO
    TITLE "0:"
    INDEX 01 01:13:55
  TRACK 74 AUDIO
    TITLE "2:cjc039_0117"
    INDEX 01 01:14:35
  TRACK 75 AUDIO
    TITLE "0:"
    INDEX 01 01:15:70
  TRACK 76 AUDIO
    TITLE "2:cjc039_0118"
    INDEX 01 01:16:44
  TRACK 77 AUDIO
    TITLE "0:"
    INDEX 01 01:18:04
  TRACK 78 AUDIO
    TITLE "2:cjc039_0119"
    INDEX 01 01:18:56
  TRACK 79 AUDIO
    TITLE "0:"
    INDEX 01 01:20:32
  TRACK 80 AUDIO
    TITLE "2:cjc039_0120"
    INDEX 01 01:21:04
  TRACK 81 AUDIO
    TITLE "0:"
    INDEX 01 01:22:25
